<?xml version="1.0" encoding="utf-8"?><svg xmlns="http://www.w3.org/2000/svg" xmlns:xlink="http://www.w3.org/1999/xlink" width="1005" height="1495" preserveAspectRatio="xMidYMid" viewBox="0 0 1005 1495" style="z-index:1;margin-right:-2px;display:block;background-repeat-y:initial;background-repeat-x:initial;background-color:rgb(153, 204, 255);animation-play-state:paused" ><g transform="translate(502.5,747.5) scale(1,1) translate(-502.5,-747.5)" style="transform:matrix(1, 0, 0, 1, 0, 0);animation-play-state:paused" ><defs style="animation-play-state:paused" ><linearGradient id="lg-0.06566680613921827" x1="0" x2="0" y1="0" y2="1" style="animation-play-state:paused" ><stop stop-color="#3184ce" offset="0" style="animation-play-state:paused" ></stop>

  
<stop stop-color="#e9f6ff" offset="1" style="animation-play-state:paused" ></stop></linearGradient></defs>


<rect x="0" y="0" width="1005" height="1495" fill="url(#lg-0.06566680613921827)" style="animation-play-state:paused" ></rect>
<circle cx="0" cy="781.8603887512575" r="61.783009373952154" fill="#91cbf0" transform="matrix(1,0,0,1,0,0)" style="transform:matrix(1, 0, 0, 1, 0, 0);animation-play-state:paused" ></circle>
<circle cx="61.783009373952154" cy="801.5341370387976" r="51.75107971808592" fill="#91cbf0" transform="matrix(1,0,0,1,-0.005429473239928484,0)" style="transform:matrix(1, 0, 0, 1, -0.00542947, 0);animation-play-state:paused" ></circle>
<circle cx="113.53408909203807" cy="812.8827723984327" r="46.41882116612683" fill="#91cbf0" transform="matrix(1,0,0,1,-0.022116538137197495,0)" style="transform:matrix(1, 0, 0, 1, -0.0221165, 0);animation-play-state:paused" ></circle>
<circle cx="159.9529102581649" cy="789.458203447309" r="81.34466221108383" fill="#91cbf0" transform="matrix(1,0,0,1,-0.05069158598780632,0)" style="transform:matrix(1, 0, 0, 1, -0.0506916, 0);animation-play-state:paused" ></circle>
<circle cx="241.29757246924873" cy="825.9760692079371" r="48.13324722143394" fill="#91cbf0" transform="matrix(1,0,0,1,-0.09182017296552658,0)" style="transform:matrix(1, 0, 0, 1, -0.0918202, 0);animation-play-state:paused" ></circle>
<circle cx="289.43081969068265" cy="821.5288325086799" r="67.74701703003215" fill="#91cbf0" transform="matrix(1,0,0,1,-0.14621537923812866,0)" style="transform:matrix(1, 0, 0, 1, -0.146215, 0);animation-play-state:paused" ></circle>
<circle cx="357.1778367207148" cy="839.029529360704" r="48.90090004060775" fill="#91cbf0" transform="matrix(1,0,0,1,-0.21463610231876373,0)" style="transform:matrix(1, 0, 0, 1, -0.214636, 0);animation-play-state:paused" ></circle>
<circle cx="406.0787367613226" cy="842.9372501769276" r="56.73050014778665" fill="#91cbf0" transform="matrix(1,0,0,1,-0.2978680431842804,0)" style="transform:matrix(1, 0, 0, 1, -0.297868, 0);animation-play-state:paused" ></circle>
<circle cx="462.80923690910925" cy="849.7243357452924" r="66.21022630985775" fill="#91cbf0" transform="matrix(1,0,0,1,-0.39674803614616394,0)" style="transform:matrix(1, 0, 0, 1, -0.396748, 0);animation-play-state:paused" ></circle>
<circle cx="529.019463218967" cy="850.8375565080931" r="81.51647695078005" fill="#91cbf0" transform="matrix(1,0,0,1,-0.5121492147445679,0)" style="transform:matrix(1, 0, 0, 1, -0.512149, 0);animation-play-state:paused" ></circle>
<circle cx="610.535940169747" cy="830.3375919704032" r="99.46813389608329" fill="#91cbf0" transform="matrix(1,0,0,1,-0.6449437141418457,0)" style="transform:matrix(1, 0, 0, 1, -0.644944, 0);animation-play-state:paused" ></circle>
<circle cx="710.0040740658303" cy="812.3104487649609" r="88.16694159878786" fill="#91cbf0" transform="matrix(1,0,0,1,-0.7960459589958191,0)" style="transform:matrix(1, 0, 0, 1, -0.796046, 0);animation-play-state:paused" ></circle>
<circle cx="798.1710156646182" cy="811.8501974459499" r="62.528042452694265" fill="#91cbf0" transform="matrix(1,0,0,1,-0.9663205146789551,0)" style="transform:matrix(1, 0, 0, 1, -0.966321, 0);animation-play-state:paused" ></circle>
<circle cx="860.6990581173125" cy="775.3073528909329" r="94.33315138940262" fill="#91cbf0" transform="matrix(1,0,0,1,-1.1566216945648193,0)" style="transform:matrix(1, 0, 0, 1, -1.15662, 0);animation-play-state:paused" ></circle>
<circle cx="955.032209506715" cy="774.0182825117517" r="75.86165907532936" fill="#91cbf0" transform="matrix(1,0,0,1,-1.367730975151062,0)" style="transform:matrix(1, 0, 0, 1, -1.36773, 0);animation-play-state:paused" ></circle>
<circle cx="1030.8938685820444" cy="804.8562894517861" r="40.53118339456884" fill="#91cbf0" transform="matrix(1,0,0,1,-1.6002578735351562,0)" style="transform:matrix(1, 0, 0, 1, -1.60026, 0);animation-play-state:paused" ></circle>
<circle cx="0" cy="815.3308286605854" r="93.0576427828455" fill="#a2cff3" transform="matrix(1,0,0,1,0,0)" style="transform:matrix(1, 0, 0, 1, 0, 0);animation-play-state:paused" ></circle>
<circle cx="93.0576427828455" cy="867.0431418500713" r="61.31982660740396" fill="#a2cff3" transform="matrix(1,0,0,1,-0.022116566076874733,0)" style="transform:matrix(1, 0, 0, 1, -0.0221166, 0);animation-play-state:paused" ></circle>
<circle cx="154.37746939024947" cy="840.875792051756" r="103.59717888744154" fill="#a2cff3" transform="matrix(1,0,0,1,-0.09181709587574005,0)" style="transform:matrix(1, 0, 0, 1, -0.0918171, 0);animation-play-state:paused" ></circle>
<circle cx="257.974648277691" cy="897.6503604797219" r="50.26129790858485" fill="#a2cff3" transform="matrix(1,0,0,1,-0.2146364003419876,0)" style="transform:matrix(1, 0, 0, 1, -0.214636, 0);animation-play-state:paused" ></circle>
<circle cx="308.2359461862759" cy="888.9372590448452" r="82.04694827512687" fill="#a2cff3" transform="matrix(1,0,0,1,-0.3967486023902893,0)" style="transform:matrix(1, 0, 0, 1, -0.396749, 0);animation-play-state:paused" ></circle>
<circle cx="390.28289446140275" cy="916.2916136292419" r="39.95947650968985" fill="#a2cff3" transform="matrix(1,0,0,1,-0.644935131072998,0)" style="transform:matrix(1, 0, 0, 1, -0.644935, 0);animation-play-state:paused" ></circle>
<circle cx="430.2423709710926" cy="911.9287344386894" r="87.34153803017828" fill="#a2cff3" transform="matrix(1,0,0,1,-0.9663219451904297,0)" style="transform:matrix(1, 0, 0, 1, -0.966322, 0);animation-play-state:paused" ></circle>
<circle cx="517.5839090012709" cy="924.4648923223019" r="70.37806578829412" fill="#a2cff3" transform="matrix(1,0,0,1,-1.3677181005477905,0)" style="transform:matrix(1, 0, 0, 1, -1.36772, 0);animation-play-state:paused" ></circle>
<circle cx="587.9619747895649" cy="917.6356964383968" r="45.88358888355708" fill="#a2cff3" transform="matrix(1,0,0,1,-1.854646921157837,0)" style="transform:matrix(1, 0, 0, 1, -1.85465, 0);animation-play-state:paused" ></circle>
<circle cx="633.845563673122" cy="893.8351767122545" r="105.73459326198318" fill="#a2cff3" transform="matrix(1,0,0,1,-2.4294703006744385,0)" style="transform:matrix(1, 0, 0, 1, -2.42947, 0);animation-play-state:paused" ></circle>
<circle cx="739.5801569351052" cy="870.4490114747107" r="99.88489442179217" fill="#a2cff3" transform="matrix(1,0,0,1,-3.0886216163635254,0)" style="transform:matrix(1, 0, 0, 1, -3.08862, 0);animation-play-state:paused" ></circle>
<circle cx="839.4650513568973" cy="895.1984406127873" r="39.5201310633567" fill="#a2cff3" transform="matrix(1,0,0,1,-3.819974422454834,0)" style="transform:matrix(1, 0, 0, 1, -3.81997, 0);animation-play-state:paused" ></circle>
<circle cx="878.985182420254" cy="834.4706628761137" r="102.9168257606914" fill="#a2cff3" transform="matrix(1,0,0,1,-4.600739479064941,0)" style="transform:matrix(1, 0, 0, 1, -4.60074, 0);animation-play-state:paused" ></circle>
<circle cx="981.9020081809454" cy="868.0777499695961" r="51.467644647243176" fill="#a2cff3" transform="matrix(1,0,0,1,-5.399208068847656,0)" style="transform:matrix(1, 0, 0, 1, -5.39921, 0);animation-play-state:paused" ></circle>
<circle cx="1033.3696528281885" cy="825.4740086851942" r="80.0837053626688" fill="#a2cff3" transform="matrix(1,0,0,1,-6.180025100708008,0)" style="transform:matrix(1, 0, 0, 1, -6.18003, 0);animation-play-state:paused" ></circle>
<circle cx="0" cy="938.8675156786736" r="49.27707026777203" fill="#b1d3f6" transform="matrix(1,0,0,1,0,0)" style="transform:matrix(1, 0, 0, 1, 0, 0);animation-play-state:paused" ></circle>
<circle cx="49.27707026777203" cy="932.1544823102807" r="60.83719230370897" fill="#b1d3f6" transform="matrix(1,0,0,1,-0.050689324736595154,0)" style="transform:matrix(1, 0, 0, 1, -0.0506893, 0);animation-play-state:paused" ></circle>
<circle cx="110.11426257148099" cy="909.8625482503525" r="94.05937678070775" fill="#b1d3f6" transform="matrix(1,0,0,1,-0.2146262526512146,0)" style="transform:matrix(1, 0, 0, 1, -0.214626, 0);animation-play-state:paused" ></circle>
<circle cx="204.17363935218873" cy="947.797886891899" r="70.46690348907838" fill="#b1d3f6" transform="matrix(1,0,0,1,-0.5121498703956604,0)" style="transform:matrix(1, 0, 0, 1, -0.51215, 0);animation-play-state:paused" ></circle>
<circle cx="274.6405428412671" cy="944.8191631469958" r="97.73338227819089" fill="#b1d3f6" transform="matrix(1,0,0,1,-0.9663099050521851,0)" style="transform:matrix(1, 0, 0, 1, -0.96631, 0);animation-play-state:paused" ></circle>
<circle cx="372.373925119458" cy="965.4224796823681" r="104.83553465769077" fill="#b1d3f6" transform="matrix(1,0,0,1,-1.6002278327941895,0)" style="transform:matrix(1, 0, 0, 1, -1.60023, 0);animation-play-state:paused" ></circle>
<circle cx="477.2094597771488" cy="992.0758195825583" r="98.09005770316584" fill="#b1d3f6" transform="matrix(1,0,0,1,-2.4294703006744385,0)" style="transform:matrix(1, 0, 0, 1, -2.42947, 0);animation-play-state:paused" ></circle>
<circle cx="575.2995174803146" cy="987.1268267931061" r="62.54356399570899" fill="#b1d3f6" transform="matrix(1,0,0,1,-3.446422576904297,0)" style="transform:matrix(1, 0, 0, 1, -3.44642, 0);animation-play-state:paused" ></circle>
<circle cx="637.8430814760236" cy="985.3766704508087" r="39.05644227304144" fill="#b1d3f6" transform="matrix(1,0,0,1,-4.600686073303223,0)" style="transform:matrix(1, 0, 0, 1, -4.60069, 0);animation-play-state:paused" ></circle>
<circle cx="676.899523749065" cy="963.8420754276373" r="82.01645627919093" fill="#b1d3f6" transform="matrix(1,0,0,1,-5.793981075286865,0)" style="transform:matrix(1, 0, 0, 1, -5.79398, 0);animation-play-state:paused" ></circle>
<circle cx="758.915980028256" cy="951.0505663541975" r="76.67258232896938" fill="#b1d3f6" transform="matrix(1,0,0,1,-6.911308288574219,0)" style="transform:matrix(1, 0, 0, 1, -6.91131, 0);animation-play-state:paused" ></circle>
<circle cx="835.5885623572253" cy="968.156554749585" r="37.51837832608845" fill="#b1d3f6" transform="matrix(1,0,0,1,-7.868858337402344,0)" style="transform:matrix(1, 0, 0, 1, -7.86886, 0);animation-play-state:paused" ></circle>
<circle cx="873.1069406833137" cy="908.1296051042233" r="101.544854484429" fill="#b1d3f6" transform="matrix(1,0,0,1,-8.632251739501953,0)" style="transform:matrix(1, 0, 0, 1, -8.63225, 0);animation-play-state:paused" ></circle>
<circle cx="974.6517951677428" cy="942.1667003524642" r="49.518384694691804" fill="#b1d3f6" transform="matrix(1,0,0,1,-9.20393180847168,0)" style="transform:matrix(1, 0, 0, 1, -9.20393, 0);animation-play-state:paused" ></circle>
<circle cx="1024.1701798624345" cy="912.3348181196686" r="68.76431948218388" fill="#b1d3f6" transform="matrix(1,0,0,1,-9.603243827819824,0)" style="transform:matrix(1, 0, 0, 1, -9.60324, 0);animation-play-state:paused" ></circle>
<circle cx="0" cy="966.2969597964147" r="85.5858668363211" fill="#bfd7f8" transform="matrix(1,0,0,1,0,0)" style="transform:matrix(1, 0, 0, 1, 0, 0);animation-play-state:paused" ></circle>
<circle cx="85.5858668363211" cy="1028.5083924022365" r="40.669910978783356" fill="#bfd7f8" transform="matrix(1,0,0,1,-0.09181709587574005,0)" style="transform:matrix(1, 0, 0, 1, -0.0918171, 0);animation-play-state:paused" ></circle>
<circle cx="126.25577781510447" cy="1004.7197367441381" r="71.54225540549113" fill="#bfd7f8" transform="matrix(1,0,0,1,-0.39673423767089844,0)" style="transform:matrix(1, 0, 0, 1, -0.396734, 0);animation-play-state:paused" ></circle>
<circle cx="197.79803322059558" cy="1039.145315737593" r="41.02910515157204" fill="#bfd7f8" transform="matrix(1,0,0,1,-0.9663219451904297,0)" style="transform:matrix(1, 0, 0, 1, -0.966322, 0);animation-play-state:paused" ></circle>
<circle cx="238.8271383721676" cy="1020.4504258184833" r="77.10362781743383" fill="#bfd7f8" transform="matrix(1,0,0,1,-1.854646921157837,0)" style="transform:matrix(1, 0, 0, 1, -1.85465, 0);animation-play-state:paused" ></circle>
<circle cx="315.93076618960146" cy="1045.9002221901812" r="51.84687614514135" fill="#bfd7f8" transform="matrix(1,0,0,1,-3.0885746479034424,0)" style="transform:matrix(1, 0, 0, 1, -3.08857, 0);animation-play-state:paused" ></circle>
<circle cx="367.77764233474284" cy="1036.2590373843418" r="101.76691035479506" fill="#bfd7f8" transform="matrix(1,0,0,1,-4.600739479064941,0)" style="transform:matrix(1, 0, 0, 1, -4.60074, 0);animation-play-state:paused" ></circle>
<circle cx="469.5445526895379" cy="1061.2022636617974" r="99.08231743484035" fill="#bfd7f8" transform="matrix(1,0,0,1,-6.179974555969238,0)" style="transform:matrix(1, 0, 0, 1, -6.17997, 0);animation-play-state:paused" ></circle>
<circle cx="568.6268701243782" cy="1061.6499586594775" r="46.544314067106406" fill="#bfd7f8" transform="matrix(1,0,0,1,-7.570446968078613,0)" style="transform:matrix(1, 0, 0, 1, -7.57045, 0);animation-play-state:paused" ></circle>
<circle cx="615.1711841914846" cy="1047.280318566741" r="80.7226502982347" fill="#bfd7f8" transform="matrix(1,0,0,1,-8.632251739501953,0)" style="transform:matrix(1, 0, 0, 1, -8.63225, 0);animation-play-state:paused" ></circle>
<circle cx="695.8938344897193" cy="1033.431540887444" r="77.01534173869737" fill="#bfd7f8" transform="matrix(1,0,0,1,-9.355027198791504,0)" style="transform:matrix(1, 0, 0, 1, -9.35503, 0);animation-play-state:paused" ></circle>
<circle cx="772.9091762284168" cy="1021.3145110598462" r="73.84475176545804" fill="#bfd7f8" transform="matrix(1,0,0,1,-9.785364151000977,0)" style="transform:matrix(1, 0, 0, 1, -9.78536, 0);animation-play-state:paused" ></circle>
<circle cx="846.7539279938748" cy="1022.5969808277446" r="56.4445680884945" fill="#bfd7f8" transform="matrix(1,0,0,1,-9.977880477905273,0)" style="transform:matrix(1, 0, 0, 1, -9.97788, 0);animation-play-state:paused" ></circle>
<circle cx="903.1984960823693" cy="996.7726634341794" r="75.48118468785073" fill="#bfd7f8" transform="matrix(1,0,0,1,-9.977886199951172,0)" style="transform:matrix(1, 0, 0, 1, -9.97789, 0);animation-play-state:paused" ></circle>
<circle cx="978.67968077022" cy="950.5502292722606" r="104.1641285743474" fill="#bfd7f8" transform="matrix(1,0,0,1,-9.785364151000977,0)" style="transform:matrix(1, 0, 0, 1, -9.78536, 0);animation-play-state:paused" ></circle>
<circle cx="0" cy="1014.4626968664878" r="104.61441927792686" fill="#ccdcfa" transform="matrix(1,0,0,1,0,0)" style="transform:matrix(1, 0, 0, 1, 0, 0);animation-play-state:paused" ></circle>
<circle cx="104.61441927792686" cy="1044.2297629046511" r="100.79225970164084" fill="#ccdcfa" transform="matrix(1,0,0,1,-0.1462116688489914,0)" style="transform:matrix(1, 0, 0, 1, -0.146212, 0);animation-play-state:paused" ></circle>
<circle cx="205.4066789795677" cy="1113.804497468621" r="36.92229312775587" fill="#ccdcfa" transform="matrix(1,0,0,1,-0.6449170112609863,0)" style="transform:matrix(1, 0, 0, 1, -0.644917, 0);animation-play-state:paused" ></circle>
<circle cx="242.32897210732355" cy="1101.2986200385137" r="62.29057474284798" fill="#ccdcfa" transform="matrix(1,0,0,1,-1.6002626419067383,0)" style="transform:matrix(1, 0, 0, 1, -1.60026, 0);animation-play-state:paused" ></circle>
<circle cx="304.61954685017156" cy="1107.7765490134657" r="68.1905154643769" fill="#ccdcfa" transform="matrix(1,0,0,1,-3.0886027812957764,0)" style="transform:matrix(1, 0, 0, 1, -3.0886, 0);animation-play-state:paused" ></circle>
<circle cx="372.8100623145485" cy="1124.965058717691" r="48.54564489989127" fill="#ccdcfa" transform="matrix(1,0,0,1,-4.9999003410339355,0)" style="transform:matrix(1, 0, 0, 1, -4.9999, 0);animation-play-state:paused" ></circle>
<circle cx="421.35570721443975" cy="1123.3338042631772" r="86.00690480152258" fill="#ccdcfa" transform="matrix(1,0,0,1,-6.911338806152344,0)" style="transform:matrix(1, 0, 0, 1, -6.91134, 0);animation-play-state:paused" ></circle>
<circle cx="507.3626120159623" cy="1138.958819826739" r="89.66255093391062" fill="#ccdcfa" transform="matrix(1,0,0,1,-8.399697303771973,0)" style="transform:matrix(1, 0, 0, 1, -8.3997, 0);animation-play-state:paused" ></circle>
<circle cx="597.025162949873" cy="1118.6377583639285" r="94.63552778902637" fill="#ccdcfa" transform="matrix(1,0,0,1,-9.355011940002441,0)" style="transform:matrix(1, 0, 0, 1, -9.35501, 0);animation-play-state:paused" ></circle>
<circle cx="691.6606907388993" cy="1105.5100790787717" r="76.35124575485764" fill="#ccdcfa" transform="matrix(1,0,0,1,-9.853777885437012,0)" style="transform:matrix(1, 0, 0, 1, -9.85378, 0);animation-play-state:paused" ></circle>
<circle cx="768.011936493757" cy="1098.3113792016588" r="65.74887061514758" fill="#ccdcfa" transform="matrix(1,0,0,1,-10,0)" style="transform:matrix(1, 0, 0, 1, -10, 0);animation-play-state:paused" ></circle>
<circle cx="833.7608071089046" cy="1099.792290221763" r="50.82695600660482" fill="#ccdcfa" transform="matrix(1,0,0,1,-9.853777885437012,0)" style="transform:matrix(1, 0, 0, 1, -9.85378, 0);animation-play-state:paused" ></circle>
<circle cx="884.5877631155095" cy="1071.040336376504" r="75.57650867141004" fill="#ccdcfa" transform="matrix(1,0,0,1,-9.355059623718262,0)" style="transform:matrix(1, 0, 0, 1, -9.35506, 0);animation-play-state:paused" ></circle>
<circle cx="960.1642717869195" cy="1045.1515870465958" r="86.78364332256618" fill="#ccdcfa" transform="matrix(1,0,0,1,-8.399778366088867,0)" style="transform:matrix(1, 0, 0, 1, -8.39978, 0);animation-play-state:paused" ></circle>
<circle cx="1046.9479151094856" cy="1092.1737200077807" r="36.78451912652553" fill="#ccdcfa" transform="matrix(1,0,0,1,-6.9113383293151855,0)" style="transform:matrix(1, 0, 0, 1, -6.91134, 0);animation-play-state:paused" ></circle>
<circle cx="0" cy="1107.2201916965118" r="86.48317358624014" fill="#d7e1fb" transform="matrix(1,0,0,1,0,0)" style="transform:matrix(1, 0, 0, 1, 0, 0);animation-play-state:paused" ></circle>
<circle cx="86.48317358624014" cy="1159.4535356222705" r="51.88511759066741" fill="#d7e1fb" transform="matrix(1,0,0,1,-0.2146262526512146,0)" style="transform:matrix(1, 0, 0, 1, -0.214626, 0);animation-play-state:paused" ></circle>
<circle cx="138.36829117690755" cy="1138.7606827077193" r="83.07492421880559" fill="#d7e1fb" transform="matrix(1,0,0,1,-0.9662736058235168,0)" style="transform:matrix(1, 0, 0, 1, -0.966274, 0);animation-play-state:paused" ></circle>
<circle cx="221.44321539571314" cy="1163.3340981982951" r="71.01802010425276" fill="#d7e1fb" transform="matrix(1,0,0,1,-2.4294703006744385,0)" style="transform:matrix(1, 0, 0, 1, -2.42947, 0);animation-play-state:paused" ></circle>
<circle cx="292.4612354999659" cy="1177.425302441717" r="66.93718959925035" fill="#d7e1fb" transform="matrix(1,0,0,1,-4.600686073303223,0)" style="transform:matrix(1, 0, 0, 1, -4.60069, 0);animation-play-state:paused" ></circle>
<circle cx="359.39842509921624" cy="1182.9022505307273" r="82.22084626542774" fill="#d7e1fb" transform="matrix(1,0,0,1,-6.911238670349121,0)" style="transform:matrix(1, 0, 0, 1, -6.91124, 0);animation-play-state:paused" ></circle>
<circle cx="441.61927136464396" cy="1204.166587458489" r="47.00159748245799" fill="#d7e1fb" transform="matrix(1,0,0,1,-8.632251739501953,0)" style="transform:matrix(1, 0, 0, 1, -8.63225, 0);animation-play-state:paused" ></circle>
<circle cx="488.620868847102" cy="1209.6285423369022" r="41.37851931043242" fill="#d7e1fb" transform="matrix(1,0,0,1,-9.603222846984863,0)" style="transform:matrix(1, 0, 0, 1, -9.60322, 0);animation-play-state:paused" ></circle>
<circle cx="529.9993881575344" cy="1206.4825613557512" r="68.78980075638363" fill="#d7e1fb" transform="matrix(1,0,0,1,-9.977873802185059,0)" style="transform:matrix(1, 0, 0, 1, -9.97787, 0);animation-play-state:paused" ></circle>
<circle cx="598.7891889139181" cy="1194.8757185247064" r="70.12254380723397" fill="#d7e1fb" transform="matrix(1,0,0,1,-9.908183097839355,0)" style="transform:matrix(1, 0, 0, 1, -9.90818, 0);animation-play-state:paused" ></circle>
<circle cx="668.911732721152" cy="1185.296659555423" r="64.67857545358372" fill="#d7e1fb" transform="matrix(1,0,0,1,-9.355084419250488,0)" style="transform:matrix(1, 0, 0, 1, -9.35508, 0);animation-play-state:paused" ></circle>
<circle cx="733.5903081747357" cy="1190.0385455428607" r="37.983458169479114" fill="#d7e1fb" transform="matrix(1,0,0,1,-8.145318031311035,0)" style="transform:matrix(1, 0, 0, 1, -8.14532, 0);animation-play-state:paused" ></circle>
<circle cx="771.5737663442148" cy="1166.5762752320181" r="69.13507399601006" fill="#d7e1fb" transform="matrix(1,0,0,1,-6.180076599121094,0)" style="transform:matrix(1, 0, 0, 1, -6.18008, 0);animation-play-state:paused" ></circle>
<circle cx="840.7088403402249" cy="1176.937609304599" r="42.17401913371207" fill="#d7e1fb" transform="matrix(1,0,0,1,-3.820075511932373,0)" style="transform:matrix(1, 0, 0, 1, -3.82008, 0);animation-play-state:paused" ></circle>
<circle cx="882.882859473937" cy="1124.2424623490565" r="95.50829640845546" fill="#d7e1fb" transform="matrix(1,0,0,1,-1.8546819686889648,0)" style="transform:matrix(1, 0, 0, 1, -1.85468, 0);animation-play-state:paused" ></circle>
<circle cx="978.3911558823925" cy="1123.5627896319324" r="76.93845827779326" fill="#d7e1fb" transform="matrix(1,0,0,1,-0.6449737548828125,0)" style="transform:matrix(1, 0, 0, 1, -0.644974, 0);animation-play-state:paused" ></circle>
<circle cx="1055.3296141601857" cy="1157.6625282823688" r="40.40135642097919" fill="#d7e1fb" transform="matrix(1,0,0,1,-0.09183692932128906,0)" style="transform:matrix(1, 0, 0, 1, -0.0918369, 0);animation-play-state:paused" ></circle>
<circle cx="0" cy="1232.564679637579" r="41.19610030201752" fill="#e2e6fc" transform="matrix(1,0,0,1,0,0)" style="transform:matrix(1, 0, 0, 1, 0, 0);animation-play-state:paused" ></circle>
<circle cx="41.19610030201752" cy="1215.4214481271297" r="60.436880362419274" fill="#e2e6fc" transform="matrix(1,0,0,1,-0.2978575527667999,0)" style="transform:matrix(1, 0, 0, 1, -0.297858, 0);animation-play-state:paused" ></circle>
<circle cx="101.63298066443679" cy="1207.0834537395617" r="78.25863000292837" fill="#e2e6fc" transform="matrix(1,0,0,1,-1.3676649332046509,0)" style="transform:matrix(1, 0, 0, 1, -1.36766, 0);animation-play-state:paused" ></circle>
<circle cx="179.89161066736517" cy="1213.2161016353912" r="89.28241915767894" fill="#e2e6fc" transform="matrix(1,0,0,1,-3.446462631225586,0)" style="transform:matrix(1, 0, 0, 1, -3.44646, 0);animation-play-state:paused" ></circle>
<circle cx="269.1740298250441" cy="1251.1516032822483" r="55.363601899404465" fill="#e2e6fc" transform="matrix(1,0,0,1,-6.179971218109131,0)" style="transform:matrix(1, 0, 0, 1, -6.17997, 0);animation-play-state:paused" ></circle>
<circle cx="324.53763172444854" cy="1239.8876780542705" r="99.09136962860303" fill="#e2e6fc" transform="matrix(1,0,0,1,-8.399659156799316,0)" style="transform:matrix(1, 0, 0, 1, -8.39966, 0);animation-play-state:paused" ></circle>
<circle cx="423.6290013530516" cy="1269.2115185872776" r="67.89791790958508" fill="#e2e6fc" transform="matrix(1,0,0,1,-9.603246688842773,0)" style="transform:matrix(1, 0, 0, 1, -9.60325, 0);animation-play-state:paused" ></circle>
<circle cx="491.5269192626367" cy="1280.0168704837226" r="75.67933790129747" fill="#e2e6fc" transform="matrix(1,0,0,1,-9.994568824768066,0)" style="transform:matrix(1, 0, 0, 1, -9.99457, 0);animation-play-state:paused" ></circle>
<circle cx="567.2062571639342" cy="1274.0133764895213" r="51.685860712664" fill="#e2e6fc" transform="matrix(1,0,0,1,-9.785385131835938,0)" style="transform:matrix(1, 0, 0, 1, -9.78539, 0);animation-play-state:paused" ></circle>
<circle cx="618.8921178765981" cy="1265.3310850557639" r="59.97062567672672" fill="#e2e6fc" transform="matrix(1,0,0,1,-8.843364715576172,0)" style="transform:matrix(1, 0, 0, 1, -8.84336, 0);animation-play-state:paused" ></circle>
<circle cx="678.8627435533249" cy="1252.3364024186158" r="70.43228766425283" fill="#e2e6fc" transform="matrix(1,0,0,1,-6.911398887634277,0)" style="transform:matrix(1, 0, 0, 1, -6.9114, 0);animation-play-state:paused" ></circle>
<circle cx="749.2950312175777" cy="1258.1970472048804" r="40.387711348081844" fill="#e2e6fc" transform="matrix(1,0,0,1,-4.2059326171875,0)" style="transform:matrix(1, 0, 0, 1, -4.20593, 0);animation-play-state:paused" ></circle>
<circle cx="789.6827425656596" cy="1214.1707492844735" r="98.90391909824726" fill="#e2e6fc" transform="matrix(1,0,0,1,-1.8546724319458008,0)" style="transform:matrix(1, 0, 0, 1, -1.85467, 0);animation-play-state:paused" ></circle>
<circle cx="888.5866616639069" cy="1196.5149670302299" r="92.71715682126542" fill="#e2e6fc" transform="matrix(1,0,0,1,-0.5121688842773438,0)" style="transform:matrix(1, 0, 0, 1, -0.512169, 0);animation-play-state:paused" ></circle>
<circle cx="981.3038184851723" cy="1204.3488900436723" r="67.91174388935914" fill="#e2e6fc" transform="matrix(1,0,0,1,-0.022113800048828125,0)" style="transform:matrix(1, 0, 0, 1, -0.0221138, 0);animation-play-state:paused" ></circle>
<circle cx="1049.2155623745314" cy="1178.6036842562048" r="79.19512484638793" fill="#e2e6fc" transform="matrix(1,0,0,1,-0.14622029662132263,0)" style="transform:matrix(1, 0, 0, 1, -0.14622, 0);animation-play-state:paused" ></circle>
<circle cx="0" cy="1276.4509401053172" r="63.79088324556909" fill="#ebecfc" transform="matrix(1,0,0,1,0,0)" style="transform:matrix(1, 0, 0, 1, 0, 0);animation-play-state:paused" ></circle>
<circle cx="63.79088324556909" cy="1292.5322290172892" r="57.71678347223313" fill="#ebecfc" transform="matrix(1,0,0,1,-0.39673423767089844,0)" style="transform:matrix(1, 0, 0, 1, -0.396734, 0);animation-play-state:paused" ></circle>
<circle cx="121.50766671780222" cy="1303.4691560222675" r="54.43952306597398" fill="#ebecfc" transform="matrix(1,0,0,1,-1.854575753211975,0)" style="transform:matrix(1, 0, 0, 1, -1.85458, 0);animation-play-state:paused" ></circle>
<circle cx="175.9471897837762" cy="1303.225493521358" r="63.82757684470794" fill="#ebecfc" transform="matrix(1,0,0,1,-4.600739479064941,0)" style="transform:matrix(1, 0, 0, 1, -4.60074, 0);animation-play-state:paused" ></circle>
<circle cx="239.77476662848414" cy="1326.217327038877" r="42.68811243802718" fill="#ebecfc" transform="matrix(1,0,0,1,-7.570446968078613,0)" style="transform:matrix(1, 0, 0, 1, -7.57045, 0);animation-play-state:paused" ></circle>
<circle cx="282.46287906651133" cy="1319.7581334698054" r="63.262196626025734" fill="#ebecfc" transform="matrix(1,0,0,1,-9.354989051818848,0)" style="transform:matrix(1, 0, 0, 1, -9.35499, 0);animation-play-state:paused" ></circle>
<circle cx="345.7250756925371" cy="1319.4581867223822" r="89.59107696621513" fill="#ebecfc" transform="matrix(1,0,0,1,-9.977880477905273,0)" style="transform:matrix(1, 0, 0, 1, -9.97788, 0);animation-play-state:paused" ></circle>
<circle cx="435.31615265875223" cy="1343.8932798876072" r="56.76124839494376" fill="#ebecfc" transform="matrix(1,0,0,1,-9.785384178161621,0)" style="transform:matrix(1, 0, 0, 1, -9.78538, 0);animation-play-state:paused" ></circle>
<circle cx="492.077401053696" cy="1351.90873107844" r="43.84404151569929" fill="#ebecfc" transform="matrix(1,0,0,1,-8.632370948791504,0)" style="transform:matrix(1, 0, 0, 1, -8.63237, 0);animation-play-state:paused" ></circle>
<circle cx="535.9214425693953" cy="1344.5239295227207" r="106.19991955736128" fill="#ebecfc" transform="matrix(1,0,0,1,-6.180076599121094,0)" style="transform:matrix(1, 0, 0, 1, -6.18008, 0);animation-play-state:paused" ></circle>
<circle cx="642.1213621267566" cy="1318.8113912947908" r="102.5378901711974" fill="#ebecfc" transform="matrix(1,0,0,1,-3.088761329650879,0)" style="transform:matrix(1, 0, 0, 1, -3.08876, 0);animation-play-state:paused" ></circle>
<circle cx="744.659252297954" cy="1292.427144809835" r="104.74463754815568" fill="#ebecfc" transform="matrix(1,0,0,1,-0.9663219451904297,0)" style="transform:matrix(1, 0, 0, 1, -0.966322, 0);animation-play-state:paused" ></circle>
<circle cx="849.4038898461097" cy="1319.3377589994816" r="40.6339157085274" fill="#ebecfc" transform="matrix(1,0,0,1,-0.09183025360107422,0)" style="transform:matrix(1, 0, 0, 1, -0.0918303, 0);animation-play-state:paused" ></circle>
<circle cx="890.0378055546371" cy="1282.0546258591157" r="76.65929619170247" fill="#ebecfc" transform="matrix(1,0,0,1,-0.09180434048175812,0)" style="transform:matrix(1, 0, 0, 1, -0.0918043, 0);animation-play-state:paused" ></circle>
<circle cx="966.6971017463395" cy="1295.4242781293242" r="51.9387851467463" fill="#ebecfc" transform="matrix(1,0,0,1,-0.9663219451904297,0)" style="transform:matrix(1, 0, 0, 1, -0.966322, 0);animation-play-state:paused" ></circle>
<circle cx="1018.6358868930859" cy="1233.1791983113312" r="97.21269530231966" fill="#ebecfc" transform="matrix(1,0,0,1,-3.0885746479034424,0)" style="transform:matrix(1, 0, 0, 1, -3.08857, 0);animation-play-state:paused" ></circle>
<circle cx="0" cy="1374.9765824539645" r="40.85284795502953" fill="#f3f2fd" transform="matrix(1,0,0,1,0,0)" style="transform:matrix(1, 0, 0, 1, 0, 0);animation-play-state:paused" ></circle>
<circle cx="40.85284795502953" cy="1320.9757571346906" r="93.45102966355091" fill="#f3f2fd" transform="matrix(1,0,0,1,-0.5121272206306458,0)" style="transform:matrix(1, 0, 0, 1, -0.512127, 0);animation-play-state:paused" ></circle>
<circle cx="134.30387761858043" cy="1330.4134034697113" r="106.43617603463404" fill="#f3f2fd" transform="matrix(1,0,0,1,-2.4293570518493652,0)" style="transform:matrix(1, 0, 0, 1, -2.42936, 0);animation-play-state:paused" ></circle>
<circle cx="240.7400536532145" cy="1359.4179941431103" r="103.31494688169153" fill="#f3f2fd" transform="matrix(1,0,0,1,-5.794003486633301,0)" style="transform:matrix(1, 0, 0, 1, -5.794, 0);animation-play-state:paused" ></circle>
<circle cx="344.055000534906" cy="1391.7724422962467" r="85.17333985929797" fill="#f3f2fd" transform="matrix(1,0,0,1,-8.632223129272461,0)" style="transform:matrix(1, 0, 0, 1, -8.63222, 0);animation-play-state:paused" ></circle>
<circle cx="429.228340394204" cy="1413.8590717995191" r="57.95574587497715" fill="#f3f2fd" transform="matrix(1,0,0,1,-9.85375690460205,0)" style="transform:matrix(1, 0, 0, 1, -9.85376, 0);animation-play-state:paused" ></circle>
<circle cx="487.18408626918114" cy="1421.1632230020537" r="77.55987587601487" fill="#f3f2fd" transform="matrix(1,0,0,1,-9.908177375793457,0)" style="transform:matrix(1, 0, 0, 1, -9.90818, 0);animation-play-state:paused" ></circle>
<circle cx="564.7439621451961" cy="1417.6668328192345" r="42.606763219204815" fill="#f3f2fd" transform="matrix(1,0,0,1,-8.843404769897461,0)" style="transform:matrix(1, 0, 0, 1, -8.8434, 0);animation-play-state:paused" ></circle>
<circle cx="607.3507253644009" cy="1407.9316025329254" r="64.17353257168776" fill="#f3f2fd" transform="matrix(1,0,0,1,-6.180173873901367,0)" style="transform:matrix(1, 0, 0, 1, -6.18017, 0);animation-play-state:paused" ></circle>
<circle cx="671.5242579360886" cy="1399.2792596773124" r="61.244522747969505" fill="#f3f2fd" transform="matrix(1,0,0,1,-2.7490406036376953,0)" style="transform:matrix(1, 0, 0, 1, -2.74904, 0);animation-play-state:paused" ></circle>
<circle cx="732.7687806840581" cy="1371.006792362892" r="96.3695800712395" fill="#f3f2fd" transform="matrix(1,0,0,1,-0.6449756622314453,0)" style="transform:matrix(1, 0, 0, 1, -0.644976, 0);animation-play-state:paused" ></circle>
<circle cx="829.1383607552976" cy="1395.6156982704058" r="36.388641927369875" fill="#f3f2fd" transform="matrix(1,0,0,1,-0.005427360534667969,0)" style="transform:matrix(1, 0, 0, 1, -0.00542736, 0);animation-play-state:paused" ></circle>
<circle cx="865.5270026826676" cy="1387.0551864923948" r="42.6156747073523" fill="#f3f2fd" transform="matrix(1,0,0,1,-0.39675748348236084,0)" style="transform:matrix(1, 0, 0, 1, -0.396757, 0);animation-play-state:paused" ></circle>
<circle cx="908.1426773900198" cy="1341.0634383758334" r="85.61644796247042" fill="#f3f2fd" transform="matrix(1,0,0,1,-2.1310935020446777,0)" style="transform:matrix(1, 0, 0, 1, -2.13109, 0);animation-play-state:paused" ></circle>
<circle cx="993.7591253524902" cy="1375.7325139282939" r="41.143276021639885" fill="#f3f2fd" transform="matrix(1,0,0,1,-5.39933443069458,0)" style="transform:matrix(1, 0, 0, 1, -5.39933, 0);animation-play-state:paused" ></circle>
<circle cx="1034.90240137413" cy="1357.8228221374065" r="52.05027843307468" fill="#f3f2fd" transform="matrix(1,0,0,1,-8.399740219116211,0)" style="transform:matrix(1, 0, 0, 1, -8.39974, 0);animation-play-state:paused" ></circle>
<circle cx="0" cy="1450.223958830012" r="37.31336764165665" fill="#f9f8fe" transform="matrix(1,0,0,1,0,0)" style="transform:matrix(1, 0, 0, 1, 0, 0);animation-play-state:paused" ></circle>
<circle cx="37.31336764165665" cy="1396.9073742961314" r="88.30066075899845" fill="#f9f8fe" transform="matrix(1,0,0,1,-0.6449217796325684,0)" style="transform:matrix(1, 0, 0, 1, -0.644922, 0);animation-play-state:paused" ></circle>
<circle cx="125.61402840065509" cy="1412.179947913858" r="92.01960121758019" fill="#f9f8fe" transform="matrix(1,0,0,1,-3.0885090827941895,0)" style="transform:matrix(1, 0, 0, 1, -3.08851, 0);animation-play-state:paused" ></circle>
<circle cx="217.63362961823526" cy="1443.080332533872" r="76.3212615174769" fill="#f9f8fe" transform="matrix(1,0,0,1,-6.911373615264893,0)" style="transform:matrix(1, 0, 0, 1, -6.91137, 0);animation-play-state:paused" ></circle>
<circle cx="293.95489113571216" cy="1463.4676488988302" r="63.31566391330471" fill="#f9f8fe" transform="matrix(1,0,0,1,-9.35503101348877,0)" style="transform:matrix(1, 0, 0, 1, -9.35503, 0);animation-play-state:paused" ></circle>
<circle cx="357.2705550490169" cy="1478.5743882167537" r="47.36109083496023" fill="#f9f8fe" transform="matrix(1,0,0,1,-10,0)" style="transform:matrix(1, 0, 0, 1, -10, 0);animation-play-state:paused" ></circle>
<circle cx="404.6316458839771" cy="1484.5478110734693" r="44.72185266134096" fill="#f9f8fe" transform="matrix(1,0,0,1,-9.35503101348877,0)" style="transform:matrix(1, 0, 0, 1, -9.35503, 0);animation-play-state:paused" ></circle>
<circle cx="449.3534985453181" cy="1481.5920635208838" r="105.64333017136474" fill="#f9f8fe" transform="matrix(1,0,0,1,-6.911373615264893,0)" style="transform:matrix(1, 0, 0, 1, -6.91137, 0);animation-play-state:paused" ></circle>
<circle cx="554.9968287166828" cy="1481.8605526377673" r="104.80906594623384" fill="#f9f8fe" transform="matrix(1,0,0,1,-3.088742256164551,0)" style="transform:matrix(1, 0, 0, 1, -3.08874, 0);animation-play-state:paused" ></circle>
<circle cx="659.8058946629167" cy="1477.505330465863" r="46.571000299246286" fill="#f9f8fe" transform="matrix(1,0,0,1,-0.6449213027954102,0)" style="transform:matrix(1, 0, 0, 1, -0.644921, 0);animation-play-state:paused" ></circle>
<circle cx="706.376894962163" cy="1462.7113952180227" r="66.31871284366132" fill="#f9f8fe" transform="matrix(1,0,0,1,0,0)" style="transform:matrix(1, 0, 0, 1, 0, 0);animation-play-state:paused" ></circle>
<circle cx="772.6956078058242" cy="1462.0115955336755" r="51.125532655589105" fill="#f9f8fe" transform="matrix(1,0,0,1,-0.6450167894363403,0)" style="transform:matrix(1, 0, 0, 1, -0.645017, 0);animation-play-state:paused" ></circle>
<circle cx="823.8211404614134" cy="1413.7269935383013" r="105.91606704422011" fill="#f9f8fe" transform="matrix(1,0,0,1,-3.0887434482574463,0)" style="transform:matrix(1, 0, 0, 1, -3.08874, 0);animation-play-state:paused" ></circle>
<circle cx="929.7372075056335" cy="1432.0222041018949" r="61.72672128979719" fill="#f9f8fe" transform="matrix(1,0,0,1,-6.911373615264893,0)" style="transform:matrix(1, 0, 0, 1, -6.91137, 0);animation-play-state:paused" ></circle>
<circle cx="991.4639287954307" cy="1371.734204342737" r="105.56515295236477" fill="#f9f8fe" transform="matrix(1,0,0,1,-9.35512638092041,0)" style="transform:matrix(1, 0, 0, 1, -9.35513, 0);animation-play-state:paused" ></circle>
<circle cx="0" cy="1473.300989858531" r="77.24917511789081" fill="#ffffff" transform="matrix(1,0,0,1,0,0)" style="transform:matrix(1, 0, 0, 1, 0, 0);animation-play-state:paused" ></circle>
<circle cx="77.24917511789081" cy="1498.6347715104064" r="66.33541378276604" fill="#ffffff" transform="matrix(1,0,0,1,-0.7960052490234375,0)" style="transform:matrix(1, 0, 0, 1, -0.796005, 0);animation-play-state:paused" ></circle>
<circle cx="143.58458890065685" cy="1496.769932877516" r="80.77137317326299" fill="#ffffff" transform="matrix(1,0,0,1,-3.8197760581970215,0)" style="transform:matrix(1, 0, 0, 1, -3.81978, 0);animation-play-state:paused" ></circle>
<circle cx="224.35596207391984" cy="1500.3646978591144" r="98.81492688619205" fill="#ffffff" transform="matrix(1,0,0,1,-7.868845462799072,0)" style="transform:matrix(1, 0, 0, 1, -7.86885, 0);animation-play-state:paused" ></circle>
<circle cx="323.1708889601119" cy="1524.0550333071665" r="97.94536258375348" fill="#ffffff" transform="matrix(1,0,0,1,-9.785340309143066,0)" style="transform:matrix(1, 0, 0, 1, -9.78534, 0);animation-play-state:paused" ></circle>
<circle cx="421.11625154386536" cy="1553.979338600376" r="61.85082472338638" fill="#ffffff" transform="matrix(1,0,0,1,-9.853815078735352,0)" style="transform:matrix(1, 0, 0, 1, -9.85382, 0);animation-play-state:paused" ></circle>
<circle cx="482.96707626725174" cy="1562.6129006148317" r="72.61318822236986" fill="#ffffff" transform="matrix(1,0,0,1,-8.145341873168945,0)" style="transform:matrix(1, 0, 0, 1, -8.14534, 0);animation-play-state:paused" ></circle>
<circle cx="555.5802644896216" cy="1560.4179195793592" r="44.03701071610773" fill="#ffffff" transform="matrix(1,0,0,1,-4.206128120422363,0)" style="transform:matrix(1, 0, 0, 1, -4.20613, 0);animation-play-state:paused" ></circle>
<circle cx="599.6172752057294" cy="1555.3989517231196" r="45.709570789953624" fill="#ffffff" transform="matrix(1,0,0,1,-0.9664325714111328,0)" style="transform:matrix(1, 0, 0, 1, -0.966433, 0);animation-play-state:paused" ></circle>
<circle cx="645.326845995683" cy="1547.9953016345376" r="52.787467145814546" fill="#ffffff" transform="matrix(1,0,0,1,-0.005431175231933594,0)" style="transform:matrix(1, 0, 0, 1, -0.00543118, 0);animation-play-state:paused" ></circle>
<circle cx="698.1143131414975" cy="1524.532892598273" r="88.7683060897114" fill="#ffffff" transform="matrix(1,0,0,1,-0.6448980569839478,0)" style="transform:matrix(1, 0, 0, 1, -0.644898, 0);animation-play-state:paused" ></circle>
<circle cx="786.8826192312089" cy="1534.6876215461632" r="46.10710216043066" fill="#ffffff" transform="matrix(1,0,0,1,-3.4465014934539795,0)" style="transform:matrix(1, 0, 0, 1, -3.4465, 0);animation-play-state:paused" ></circle>
<circle cx="832.9897213916395" cy="1504.894481465132" r="77.4243016658105" fill="#ffffff" transform="matrix(1,0,0,1,-7.570474624633789,0)" style="transform:matrix(1, 0, 0, 1, -7.57047, 0);animation-play-state:paused" ></circle>
<circle cx="910.41402305745" cy="1478.6431645867892" r="89.67741426268655" fill="#ffffff" transform="matrix(1,0,0,1,-9.702092170715332,0)" style="transform:matrix(1, 0, 0, 1, -9.70209, 0);animation-play-state:paused" ></circle>
<circle cx="1000.0914373201365" cy="1494.374121600493" r="60.277035194431264" fill="#ffffff" transform="matrix(1,0,0,1,-9.908174514770508,0)" style="transform:matrix(1, 0, 0, 1, -9.90817, 0);animation-play-state:paused" ></circle>
<circle cx="1060.3684725145677" cy="1508.7681989067717" r="42.9596184200274" fill="#ffffff" transform="matrix(1,0,0,1,-8.399778366088867,0)" style="transform:matrix(1, 0, 0, 1, -8.39978, 0);animation-play-state:paused" ></circle></g></svg>